<svg xmlns="http://www.w3.org/2000/svg" viewBox="0 0 711.74 455.42"><defs><style>.cls-1,.cls-4,.cls-5{fill:#fff;}.cls-2{fill:#305399;}.cls-3{fill:#587bc9;}.cls-4{font-size:74.33px;}.cls-4,.cls-5{font-family:BookAntiqua-Bold, Book Antiqua;font-weight:700;}.cls-5{font-size:68.7px;}</style></defs><g id="Capa_2" data-name="Capa 2"><g id="Capa_1-2" data-name="Capa 1"><path class="cls-1" d="M643.39,217.35,640.56,216a85.57,85.57,0,0,0,14.65-48.67c0-43.29-30.53-78.51-68.06-78.51s-68,35.22-68,78.51A85.57,85.57,0,0,0,533.74,216c-1.48.67-2.46,1.17-2.89,1.39a112.61,112.61,0,0,0-65.64,102v27.21a21.27,21.27,0,0,0,21.24,21.24h201.4a21.26,21.26,0,0,0,21.24-21.24V319.36a112.61,112.61,0,0,0-65.7-102Z"/><path class="cls-2" d="M640.21,224c-.37.45-.72.9-1.09,1.34-13.76,16.13-32.22,25-52,25s-38.2-8.89-52-25c-.38-.44-.73-.89-1.1-1.34a105.12,105.12,0,0,0-61.52,95.37v27.21a13.87,13.87,0,0,0,13.88,13.88h201.4a13.88,13.88,0,0,0,13.89-13.88V319.36A105.11,105.11,0,0,0,640.21,224Z"/><path class="cls-2" d="M587.15,238.46c16,0,30.45-7.22,41.28-19,11.94-13,19.42-31.54,19.42-52.14,0-39.3-27.18-71.15-60.7-71.15s-60.7,31.85-60.7,71.15c0,20.6,7.48,39.15,19.42,52.14,10.83,11.79,25.33,19,41.28,19Z"/><path class="cls-1" d="M180.83,217.35,178,216a85.56,85.56,0,0,0,14.64-48.67c0-43.29-30.53-78.51-68-78.51S56.53,124,56.53,167.31A85.57,85.57,0,0,0,71.17,216c-1.47.67-2.45,1.17-2.88,1.39a112.61,112.61,0,0,0-65.65,102v27.21a21.27,21.27,0,0,0,21.24,21.24H225.29a21.27,21.27,0,0,0,21.24-21.24V319.36a112.63,112.63,0,0,0-65.7-102Z"/><path class="cls-2" d="M177.64,224c-.36.45-.71.9-1.09,1.34-13.76,16.13-32.21,25-52,25s-38.21-8.89-52-25c-.37-.44-.73-.89-1.09-1.34A105.11,105.11,0,0,0,10,319.36v27.21a13.88,13.88,0,0,0,13.88,13.88H225.29a13.87,13.87,0,0,0,13.88-13.88V319.36A105.11,105.11,0,0,0,177.64,224Z"/><path class="cls-2" d="M124.59,238.46c15.94,0,30.45-7.22,41.28-19,11.94-13,19.41-31.54,19.41-52.14,0-39.3-27.17-71.15-60.69-71.15S63.89,128,63.89,167.31c0,20.6,7.48,39.15,19.41,52.14,10.84,11.79,25.34,19,41.29,19Z"/><path class="cls-1" d="M425.74,150.31c-1.1-.54-2.2-1.08-3.31-1.6,11.11-16.13,17.12-35.93,17.12-56.91C439.55,41.18,403.85,0,360,0S280.4,41.18,280.4,91.8c0,21,6,40.79,17.12,56.92-1.72.79-2.87,1.37-3.38,1.63a131.67,131.67,0,0,0-76.75,119.24V301.4a24.86,24.86,0,0,0,24.84,24.84h235.5a24.86,24.86,0,0,0,24.83-24.84V269.59a131.69,131.69,0,0,0-76.82-119.28Z"/><path class="cls-3" d="M422,158.07c-.43.53-.84,1.06-1.28,1.58-16.09,18.86-37.67,29.24-60.76,29.24s-44.68-10.38-60.77-29.24c-.43-.52-.85-1.05-1.28-1.58C255.6,177.42,226,220.21,226,269.59V301.4a16.24,16.24,0,0,0,16.24,16.24h235.5A16.24,16.24,0,0,0,494,301.4V269.59c0-49.38-29.61-92.17-71.94-111.52Z"/><path class="cls-3" d="M360,175c18.64,0,35.6-8.44,48.27-22.22,14-15.2,22.7-36.88,22.7-61,0-45.95-31.78-83.2-71-83.2s-71,37.25-71,83.2c0,24.09,8.75,45.77,22.71,61C324.37,166.55,341.33,175,360,175Z"/><text class="cls-4" transform="translate(97.04 326.24) scale(0.81 1)">G</text><text class="cls-4" transform="translate(336.53 274.88) scale(0.81 1)">C</text><text class="cls-4" transform="translate(563.96 333.89) scale(0.81 1)">C</text><path class="cls-2" d="M36.24,450.42A31.27,31.27,0,0,1,5,419.18V338.89H706.74v80.29a31.28,31.28,0,0,1-31.24,31.24Z"/><path class="cls-1" d="M701.74,343.88v75.3a26.24,26.24,0,0,1-26.24,26.24H36.24A26.24,26.24,0,0,1,10,419.18v-75.3H701.74m10-10H0v85.3a36.28,36.28,0,0,0,36.24,36.24H675.5a36.28,36.28,0,0,0,36.24-36.24v-85.3Z"/><text class="cls-5" transform="translate(24.83 411) scale(0.81 1)">Groups Capital Company</text></g></g></svg>